<svg xmlns="http://www.w3.org/2000/svg" xml:space="preserve" width="2202" height="969" style="shape-rendering:geometricPrecision;text-rendering:geometricPrecision;image-rendering:optimizeQuality;fill-rule:evenodd;clip-rule:evenodd" viewBox="0 0 2202 969.24"><defs><style>.fil0{fill:#fff;fill-rule:nonzero}</style></defs><g id="Vrstva_x0020_1"><path class="fil0" d="M1512.74 314.63v135.32h40c20.49 0 34.75-10.08 42.82-30.24 4.43-11.07 6.64-24.24 6.64-39.52 0-21.11-3.33-37.32-9.93-48.61-6.62-11.3-19.81-16.95-39.53-16.95h-40zm79.42-31.52c14.54 4.8 26.34 13.56 35.35 26.31 7.21 10.33 12.15 21.47 14.78 33.49 2.63 11.99 3.93 23.43 3.93 34.33 0 27.56-5.54 50.9-16.6 70.04-15.02 25.79-38.21 38.68-69.55 38.68h-89.4V278.61h89.4c12.86.19 23.54 1.69 32.09 4.5zM1735.16 407.62h53.1l-26.2-81.59-26.9 81.59zm2.87-129.01h49.02l73.35 207.35h-46.98l-13.67-42.62h-76.37l-14.05 42.62h-45.34l74.04-207.35zM2016.2 278.62v36.72h-62.04v170.62h-43.61V315.34h-62.33v-36.72zM2076.72 407.62h53.1l-26.19-81.59-26.91 81.59zm2.87-129.01h49.02l73.34 207.35h-46.96l-13.7-42.62h-76.35l-14.04 42.62h-45.35l74.04-207.35zM1471.36 624.33H1514v85.44l80.11-85.44h55.99l-85.1 85.28 89.45 122.07h-55.71l-63.87-90.5-20.87 21.15v69.35h-42.64zM1678.44 831.68V624.34h43.04v79.05h80.61v-79.05h43.06v207.34h-43.06v-92.57h-80.61v92.57zM1887.48 624.33h42.64v85.44l80.11-85.44h55.99l-85.11 85.28 89.46 122.07h-55.71l-63.87-90.5-20.87 21.15v69.35h-42.64z"/><path d="M675.43 370.8c0-50.85 41.34-92.19 92.19-92.19 50.85 0 92.19 41.34 92.19 92.19 0 50.85-41.34 92.18-92.19 92.18-26.7 0-50.85-11.52-67.67-29.81l-166.82 95.11c2.56 8.6 4.03 17.56 4.03 26.89 0 9.32-1.47 18.29-4.03 26.89l166.82 94.92c16.82-18.28 40.97-29.63 67.67-29.63 50.85 0 92.19 41.34 92.19 92.19 0 50.85-41.34 92.18-92.19 92.18-50.85 0-92.19-41.33-92.19-92.18 0-7.5.92-14.82 2.57-21.95l-169.01-96.21c-16.46 16.09-39.14 25.97-64.02 25.97-50.85 0-92.18-41.33-92.18-92.18 0-50.85 41.33-92.19 92.18-92.19 24.88 0 47.56 9.88 64.02 25.98L678 392.56a94.271 94.271 0 0 1-2.57-21.76zm458.74-229.55H628.98L528.38 6.08c-2.93-3.66-7.5-5.67-12.26-5.49H109.7C48.8 1.14-.22 50.71-.04 111.62v747.36c0 56.52 42.44 103.34 97.31 109.93 3.83.52 7.83.87 11.84.91H1134.76c3.99-.04 7.83-.39 11.66-.91 55.06-6.59 97.49-53.41 97.49-109.93V252.09c0-60.72-49.02-110.11-109.74-110.84z" style="fill:#c4001e;fill-rule:nonzero"/></g><path d="M675.43 370.8c0-50.85 41.34-92.19 92.19-92.19 50.85 0 92.19 41.34 92.19 92.19 0 50.85-41.34 92.18-92.19 92.18-26.7 0-50.85-11.52-67.67-29.81l-166.82 95.11c2.56 8.6 4.03 17.56 4.03 26.89 0 9.32-1.47 18.29-4.03 26.89l166.82 94.92c16.82-18.28 40.97-29.63 67.67-29.63 50.85 0 92.19 41.34 92.19 92.19 0 50.85-41.34 92.18-92.19 92.18-50.85 0-92.19-41.33-92.19-92.18 0-7.5.92-14.82 2.57-21.95l-169.01-96.21c-16.46 16.09-39.14 25.97-64.02 25.97-50.85 0-92.18-41.33-92.18-92.18 0-50.85 41.33-92.19 92.18-92.19 24.88 0 47.56 9.88 64.02 25.98L678 392.56a94.271 94.271 0 0 1-2.57-21.76z" style="fill:#fff;fill-rule:nonzero" id="Vrstva_x0020_2"/></svg>