<?xml version="1.0" encoding="UTF-8"?><svg id="Vrstva_1" xmlns="http://www.w3.org/2000/svg" viewBox="0 0 451.84 199.62"><path d="M251.72,95.94c-.65-3.61-2.96-6.71-6.23-8.36l-10.16-5.14v.02h-88.94V38.1l-12.24-5.1c-3.11-1.57-6.75-1.67-9.95-.28L7.02,89.4c-3.9,1.7-6.57,5.38-6.96,9.61-.4,4.23,1.52,8.35,5.02,10.75l116.35,77.36c23.54,16.67,36.32,16.67,52.99,0l74.37-81.17c2.49-2.7,3.57-6.4,2.91-10.01h0Z" style="fill:#fff;"/><g><polygon points="180.75 11.42 187.55 23.53 183.39 23.53 178.22 14.39 175.05 18.02 175.05 23.53 171.45 23.53 171.45 4.1 175.05 4.1 175.05 13.01 182.84 4.1 187.13 4.1 180.75 11.42 180.75 11.42" style="fill:#fff;"/><path d="M196.46,7.24c2.14,0,3.08,.03,3.85,.41,1.51,.77,1.54,2.21,1.54,2.61,0,2.83-2.61,2.97-3.41,3-.68,.03-1.15,.06-2.39,.06h-1.26V7.24h1.68Zm-5.28,16.29h3.61v-7.21h3.24l3.85,7.21h4.16l-4.32-7.9c1.1-.33,3.82-1.62,3.82-5.34,0-2.25-.93-3.8-2.14-4.79-1.71-1.38-3.44-1.38-6.03-1.4h-6.19V23.53h0Z" style="fill:#fff;"/><path d="M214.67,16.57l2.7-8.95,2.67,8.95h-5.37Zm7.46,6.96h3.88l-6.63-19.43h-4.13l-6.55,19.43h3.88l1.12-3.8h7.29l1.13,3.8h0ZM216.85,0l-2.04,2.94h2.81l3.96-2.94h-4.73Z" style="fill:#fff;"/><polygon points="232.62 20.22 240.33 20.22 240.33 23.53 228.96 23.53 228.96 4.07 232.62 4.07 232.62 20.22 232.62 20.22" style="fill:#fff;"/><path d="M255.98,14.23c-.08,4.68-3.19,6.44-5.62,6.44-3.22,0-5.64-2.62-5.64-6.99,0-4.05,2.23-6.74,5.56-6.74,3.82,0,5.78,3.49,5.69,7.29h0Zm3.63-.41c.03-6.63-4.48-10.21-9.3-10.21-5.31,0-9.33,4.29-9.33,10.23,0,2.45,.66,4.98,2.59,7.21,1.98,2.29,4.24,2.97,6.69,2.97,5.97,0,9.33-4.65,9.36-10.21h0Z" style="fill:#fff;"/><polygon points="277.48 4.1 271.95 23.53 267.06 23.53 261.33 4.1 265.16 4.1 269.51 19.43 273.71 4.1 277.48 4.1 277.48 4.1" style="fill:#fff;"/><path d="M285.24,7.35v4.56h9.35v3.14h-9.35v5.2h10.92v3.28h-14.5V4.1h13.81v3.25h-10.24Zm8.36-7.35l-3.96,2.94h-2.81l2.04-2.94h4.73Z" style="fill:#fff;"/><polygon points="316.32 4.1 316.32 23.53 312.66 23.53 312.66 14.69 304.32 14.69 304.32 23.53 300.69 23.53 300.69 4.1 304.32 4.1 304.32 11.45 312.66 11.45 312.66 4.1 316.32 4.1 316.32 4.1" style="fill:#fff;"/><path d="M326.84,7.24c2.15,0,3.08,.03,3.85,.41,1.52,.77,1.54,2.21,1.54,2.61,0,2.83-2.62,2.97-3.42,3-.68,.03-1.15,.06-2.39,.06h-1.27V7.24h1.68Zm-5.28,16.29h3.6v-7.21h3.25l3.85,7.21h4.16l-4.32-7.9c1.1-.33,3.82-1.62,3.82-5.34,0-2.25-.93-3.8-2.14-4.79-1.7-1.38-3.44-1.38-6.02-1.4h-6.19V23.53h0Z" style="fill:#fff;"/><path d="M345.36,16.57l2.7-8.95,2.67,8.95h-5.37Zm7.46,6.96h3.87l-6.63-19.43h-4.12l-6.55,19.43h3.88l1.13-3.8h7.29l1.13,3.8h0Z" style="fill:#fff;"/><path d="M365.8,7.4c2.45,.02,3.03,.05,4.07,.52,2.7,1.29,2.97,4.26,2.97,6.08,0,4.04-1.49,5.25-2.89,5.8-.82,.31-1.79,.44-4.54,.44h-1.53V7.4h1.92Zm-5.56,16.12h6.22c2.28-.03,4.32-.05,6.25-1.19,2.86-1.65,3.99-5.04,3.99-8.36,0-2.18-.5-6.08-3.74-8.37-2.04-1.46-4.08-1.48-5.75-1.51h-6.96V23.53h0Z" style="fill:#fff;"/><polygon points="383.71 7.35 383.71 11.91 393.07 11.91 393.07 15.05 383.71 15.05 383.71 20.25 394.64 20.25 394.64 23.53 380.14 23.53 380.14 4.1 393.95 4.1 393.95 7.35 383.71 7.35 383.71 7.35" style="fill:#fff;"/><path d="M414.5,18.11c-.25,.63-.72,1.76-1.68,2.92-1.37,1.59-3.55,3-6.71,3-5.15,0-9.08-3.77-9.08-10.26s4.26-10.15,9.22-10.15c6.05,0,7.48,4.65,7.93,6l-3.63,.96c-.06-.36-.22-1.19-.72-1.93-.41-.6-1.49-1.71-3.49-1.71-3.16,0-5.37,2.61-5.37,6.77,0,4.43,2.34,6.88,5.39,6.88,1.81,0,2.92-.88,3.71-1.9,.64-.86,.88-1.57,1.02-2.01l3.41,1.43h0Z" style="fill:#fff;"/><polygon points="426.82 11.42 433.61 23.53 429.46 23.53 424.29 14.39 421.12 18.02 421.12 23.53 417.51 23.53 417.51 4.1 421.12 4.1 421.12 13.01 428.91 4.1 433.2 4.1 426.82 11.42 426.82 11.42" style="fill:#fff;"/><path d="M445.3,15.85v7.68h-3.58v-7.68l-6.5-11.75h4.1l4.21,8.06,4.26-8.06h4.04l-6.54,11.75h0Zm2.89-15.85l-3.96,2.94h-2.81l2.04-2.94h4.73Z" style="fill:#fff;"/><polygon points="180.75 45.14 187.55 57.24 183.39 57.24 178.22 48.11 175.06 51.74 175.06 57.24 171.45 57.24 171.45 37.81 175.06 37.81 175.06 46.73 182.84 37.81 187.13 37.81 180.75 45.14 180.75 45.14" style="fill:#fff;"/><path d="M195.9,40.95c2.15,0,3.08,.03,3.85,.41,1.52,.77,1.54,2.2,1.54,2.61,0,2.84-2.62,2.97-3.41,3-.69,.03-1.15,.06-2.4,.06h-1.27v-6.08h1.68Zm-5.28,16.29h3.6v-7.21h3.25l3.86,7.21h4.15l-4.32-7.89c1.1-.33,3.82-1.62,3.82-5.34,0-2.26-.93-3.8-2.14-4.79-1.71-1.38-3.44-1.38-6.03-1.41h-6.19v19.43h0Z" style="fill:#fff;"/><path d="M213.86,50.28l2.7-8.94,2.67,8.94h-5.37Zm7.46,6.96h3.88l-6.63-19.43h-4.13l-6.55,19.43h3.88l1.13-3.79h7.29l1.12,3.79h0Z" style="fill:#fff;"/><path d="M235.11,37.81v13.73c0,1.54-.02,2.78-.88,3.96-1.16,1.62-3.3,2.15-5.34,2.15-1.12,0-1.78-.17-2.23-.25v-3.58c.53,.11,1.16,.28,1.92,.28,1.08,0,1.82-.33,2.23-.77,.68-.69,.68-1.51,.68-3.11v-12.41h3.61Z" style="fill:#fff;"/></g></svg>