<svg width="35" height="35" viewBox="0 0 35 35" fill="none" xmlns="http://www.w3.org/2000/svg">
<path fill-rule="evenodd" clip-rule="evenodd" d="M30.625 32.8125C31.8331 32.8125 32.8125 31.8331 32.8125 30.625L32.8125 4.375C32.8125 3.16688 31.8331 2.1875 30.625 2.1875L4.375 2.1875C3.16688 2.1875 2.1875 3.16688 2.1875 4.375L2.1875 30.625C2.1875 31.8331 3.16688 32.8125 4.375 32.8125L30.625 32.8125ZM30.625 0C33.0412 0 35 1.95875 35 4.375L35 30.625C35 33.0412 33.0412 35 30.625 35L4.375 35C1.95875 35 -1.72853e-06 33.0412 -1.72853e-06 30.625L-1.72853e-06 4.375C-1.72853e-06 1.95875 1.95875 0 4.375 0L30.625 0ZM18.5938 9.84375C18.5938 9.23969 18.1041 8.75 17.5 8.75C16.8959 8.75 16.4063 9.23969 16.4063 9.84375V22.5157L11.7109 17.8204C11.2838 17.3932 10.5912 17.3932 10.1641 17.8204C9.73696 18.2475 9.73696 18.94 10.1641 19.3672L16.7266 25.9296C17.1537 26.3568 17.8463 26.3568 18.2734 25.9296L24.8359 19.3672C25.263 18.94 25.263 18.2475 24.8359 17.8204C24.4088 17.3932 23.7162 17.3932 23.2891 17.8204L18.5938 22.5157V9.84375Z" fill="#212529"/>
</svg>
