<svg width="35" height="35" viewBox="0 0 35 35" fill="none" xmlns="http://www.w3.org/2000/svg">
<path fill-rule="evenodd" clip-rule="evenodd" d="M4.375 2.1875C3.16688 2.1875 2.1875 3.16688 2.1875 4.375L2.1875 30.625C2.1875 31.8331 3.16688 32.8125 4.375 32.8125H30.625C31.8331 32.8125 32.8125 31.8331 32.8125 30.625V4.375C32.8125 3.16688 31.8331 2.1875 30.625 2.1875H4.375ZM4.375 35C1.95875 35 0 33.0412 0 30.625L0 4.375C0 1.95875 1.95875 -1.72853e-06 4.375 -1.72853e-06H30.625C33.0412 -1.72853e-06 35 1.95875 35 4.375V30.625C35 33.0412 33.0412 35 30.625 35H4.375ZM16.4062 25.1562C16.4062 25.7603 16.8959 26.25 17.5 26.25C18.1041 26.25 18.5937 25.7603 18.5937 25.1562L18.5937 12.4843L23.2891 17.1796C23.7162 17.6068 24.4088 17.6068 24.8359 17.1796C25.263 16.7525 25.263 16.06 24.8359 15.6328L18.2734 9.07035C17.8463 8.64321 17.1537 8.64321 16.7266 9.07035L10.1641 15.6328C9.73696 16.06 9.73696 16.7525 10.1641 17.1796C10.5912 17.6068 11.2838 17.6068 11.7109 17.1796L16.4062 12.4843L16.4062 25.1562Z" fill="#212529"/>
</svg>
