<svg width="162" height="100" viewBox="0 0 162 100" fill="none" xmlns="http://www.w3.org/2000/svg">
<path d="M5.86914 19H7.60742L12.8027 4.9082H10.957L6.81641 16.7246H6.66016L2.51953 4.9082H0.673828L5.86914 19ZM16.0481 22.6914C17.9133 22.6914 18.7824 22.0078 19.6516 19.6445L23.7629 8.47266H21.9758L19.0949 17.1348H18.9387L16.0481 8.47266H14.2317L18.1281 19.0098L17.9328 19.6348C17.552 20.8457 16.966 21.2852 15.9992 21.2852C15.7649 21.2852 15.5012 21.2754 15.2961 21.2363V22.6328C15.5305 22.6719 15.8235 22.6914 16.0481 22.6914ZM31.6274 19.1855C34.2934 19.1855 36.0414 17.0273 36.0414 13.7461V13.7266C36.0414 10.4258 34.3032 8.28711 31.6274 8.28711C30.1821 8.28711 28.9223 9.00977 28.3461 10.1328H28.1899V4.29297H26.4907V19H28.1899V17.3203H28.3461C28.9907 18.4922 30.1625 19.1855 31.6274 19.1855ZM31.2367 17.6816C29.3227 17.6816 28.1508 16.1777 28.1508 13.7461V13.7266C28.1508 11.2949 29.3227 9.79102 31.2367 9.79102C33.1606 9.79102 34.3032 11.2754 34.3032 13.7266V13.7461C34.3032 16.1973 33.1606 17.6816 31.2367 17.6816ZM43.359 19.1855C45.8395 19.1855 47.3434 17.7793 47.7047 16.3535L47.7243 16.2754H46.025L45.986 16.3633C45.7028 16.998 44.8239 17.6719 43.3981 17.6719C41.5231 17.6719 40.3219 16.4023 40.2731 14.2246H47.8512V13.5605C47.8512 10.416 46.1129 8.28711 43.2516 8.28711C40.3903 8.28711 38.5348 10.5137 38.5348 13.7656V13.7754C38.5348 17.0762 40.3512 19.1855 43.359 19.1855ZM43.2418 9.80078C44.7946 9.80078 45.9469 10.7871 46.1227 12.8672H40.3024C40.4879 10.8652 41.6793 9.80078 43.2418 9.80078ZM50.8719 19H52.5712V12.4766C52.5712 10.9336 53.7235 9.9082 55.3446 9.9082C55.7157 9.9082 56.038 9.94727 56.3895 10.0059V8.35547C56.2235 8.32617 55.8622 8.28711 55.5399 8.28711C54.1141 8.28711 53.1278 8.93164 52.7274 10.0352H52.5712V8.47266H50.8719V19ZM63.1993 19.0781C63.5313 19.0781 63.8536 19.0391 64.1856 18.9805V17.5352C63.8731 17.5645 63.7071 17.5742 63.4044 17.5742C62.3106 17.5742 61.8809 17.0762 61.8809 15.8359V9.87891H64.1856V8.47266H61.8809V5.74805H60.1231V8.47266H58.463V9.87891H60.1231V16.2656C60.1231 18.2773 61.0313 19.0781 63.1993 19.0781ZM71.2493 19.1855C73.7298 19.1855 75.2337 17.7793 75.595 16.3535L75.6145 16.2754H73.9153L73.8763 16.3633C73.5931 16.998 72.7142 17.6719 71.2884 17.6719C69.4134 17.6719 68.2122 16.4023 68.1634 14.2246H75.7415V13.5605C75.7415 10.416 74.0032 8.28711 71.1419 8.28711C68.2806 8.28711 66.4251 10.5137 66.4251 13.7656V13.7754C66.4251 17.0762 68.2415 19.1855 71.2493 19.1855ZM71.1321 9.80078C72.6849 9.80078 73.8372 10.7871 74.013 12.8672H68.1927C68.3782 10.8652 69.5696 9.80078 71.1321 9.80078ZM89.0974 19.1855C92.0954 19.1855 93.9509 17.1152 93.9509 13.7461V13.7266C93.9509 10.3477 92.0954 8.28711 89.0974 8.28711C86.0993 8.28711 84.2439 10.3477 84.2439 13.7266V13.7461C84.2439 17.1152 86.0993 19.1855 89.0974 19.1855ZM89.0974 17.6816C87.1052 17.6816 85.9822 16.2266 85.9822 13.7461V13.7266C85.9822 11.2363 87.1052 9.79102 89.0974 9.79102C91.0896 9.79102 92.2126 11.2363 92.2126 13.7266V13.7461C92.2126 16.2266 91.0896 17.6816 89.0974 17.6816ZM102.206 19.1855C104.872 19.1855 106.62 17.0273 106.62 13.7461V13.7266C106.62 10.4258 104.882 8.28711 102.206 8.28711C100.761 8.28711 99.5009 9.00977 98.9248 10.1328H98.7685V4.29297H97.0693V19H98.7685V17.3203H98.9248C99.5693 18.4922 100.741 19.1855 102.206 19.1855ZM101.815 17.6816C99.9013 17.6816 98.7294 16.1777 98.7294 13.7461V13.7266C98.7294 11.2949 99.9013 9.79102 101.815 9.79102C103.739 9.79102 104.882 11.2754 104.882 13.7266V13.7461C104.882 16.1973 103.739 17.6816 101.815 17.6816ZM109.641 19H111.34V12.4766C111.34 10.9336 112.492 9.9082 114.113 9.9082C114.485 9.9082 114.807 9.94727 115.158 10.0059V8.35547C114.992 8.32617 114.631 8.28711 114.309 8.28711C112.883 8.28711 111.897 8.93164 111.496 10.0352H111.34V8.47266H109.641V19ZM122.212 7.00781L124.468 3.6875H122.456L120.728 7.00781H122.212ZM120.533 19.1855C121.949 19.1855 123.052 18.5703 123.716 17.4473H123.872V19H125.572V11.793C125.572 9.60547 124.136 8.28711 121.568 8.28711C119.322 8.28711 117.72 9.40039 117.447 11.0508L117.437 11.1094H119.136L119.146 11.0801C119.419 10.2598 120.249 9.79102 121.509 9.79102C123.081 9.79102 123.872 10.4941 123.872 11.793V12.75L120.855 12.9355C118.404 13.082 117.017 14.166 117.017 16.041V16.0605C117.017 17.9746 118.531 19.1855 120.533 19.1855ZM118.755 16.0215V16.002C118.755 14.957 119.458 14.3906 121.06 14.293L123.872 14.1172V15.0742C123.872 16.5781 122.613 17.7109 120.884 17.7109C119.663 17.7109 118.755 17.0859 118.755 16.0215ZM128.817 19H136.922V17.5938H130.848V17.4375L136.893 9.73242V8.47266H128.827V9.87891H134.891V10.0352L128.817 17.7695V19ZM144.23 19.1855C146.711 19.1855 148.215 17.7793 148.576 16.3535L148.596 16.2754H146.896L146.857 16.3633C146.574 16.998 145.695 17.6719 144.269 17.6719C142.394 17.6719 141.193 16.4023 141.144 14.2246H148.722V13.5605C148.722 10.416 146.984 8.28711 144.123 8.28711C141.262 8.28711 139.406 10.5137 139.406 13.7656V13.7754C139.406 17.0762 141.222 19.1855 144.23 19.1855ZM144.113 9.80078C145.666 9.80078 146.818 10.7871 146.994 12.8672H141.174C141.359 10.8652 142.551 9.80078 144.113 9.80078ZM151.841 19H153.54V15.0059L154.526 14.0488L158.472 19H160.61L155.718 12.8965L160.308 8.47266H158.247L153.696 13.0723H153.54V4.29297H151.841V19Z" fill="#919192"/>
<path d="M47.0065 45.5625C47.0065 40.9371 50.7561 37.1875 55.3815 37.1875H105.631C110.257 37.1875 114.006 40.9371 114.006 45.5625V87.4375C114.006 92.0629 110.257 95.8125 105.631 95.8125H55.3815C50.7561 95.8125 47.0065 92.0629 47.0065 87.4375V45.5625ZM51.194 83.25V87.4375C51.194 89.7502 53.0688 91.625 55.3815 91.625H105.631C107.944 91.625 109.819 89.7502 109.819 87.4375V72.7812L94.0053 64.6273C93.1993 64.2243 92.2257 64.3822 91.5885 65.0195L76.0522 80.5558L64.9179 73.1329C64.0874 72.5793 62.9817 72.6888 62.276 73.3945L51.194 83.25ZM72.1315 56.0312C72.1315 52.5622 69.3193 49.75 65.8502 49.75C62.3812 49.75 59.569 52.5622 59.569 56.0312C59.569 59.5003 62.3812 62.3125 65.8502 62.3125C69.3193 62.3125 72.1315 59.5003 72.1315 56.0312Z" fill="#919192"/>
</svg>
