<svg width="141" height="105" viewBox="0 0 141 105" fill="none" xmlns="http://www.w3.org/2000/svg">
<path d="M7.71484 19.332C11.7383 19.332 14.1797 16.4512 14.1797 11.959V11.9395C14.1797 7.42773 11.7188 4.57617 7.71484 4.57617C3.73047 4.57617 1.25 7.41797 1.25 11.9395V11.959C1.25 16.4609 3.67188 19.332 7.71484 19.332ZM7.71484 17.7109C4.78516 17.7109 3.04688 15.4453 3.04688 11.959V11.9395C3.04688 8.42383 4.84375 6.19727 7.71484 6.19727C10.5957 6.19727 12.3828 8.42383 12.3828 11.9395V11.959C12.3828 15.4453 10.6055 17.7109 7.71484 17.7109ZM17.1516 19H25.257V17.5938H19.1828V17.4375L25.2277 9.73242V8.47266H17.1613V9.87891H23.2258V10.0352L17.1516 17.7695V19ZM28.561 19H30.2602V12.7695C30.2602 10.9238 31.3246 9.79102 33.0043 9.79102C34.684 9.79102 35.4653 10.6992 35.4653 12.5938V19H37.1645V12.1836C37.1645 9.68359 35.8461 8.28711 33.4828 8.28711C31.9301 8.28711 30.9438 8.94141 30.4164 10.0547H30.2602V8.47266H28.561V19ZM43.5153 19.1855C44.9313 19.1855 46.0348 18.5703 46.6989 17.4473H46.8551V19H48.5543V11.793C48.5543 9.60547 47.1188 8.28711 44.5504 8.28711C42.3043 8.28711 40.7028 9.40039 40.4293 11.0508L40.4196 11.1094H42.1188L42.1286 11.0801C42.402 10.2598 43.2321 9.79102 44.4918 9.79102C46.0641 9.79102 46.8551 10.4941 46.8551 11.793V12.75L43.8375 12.9355C41.3864 13.082 39.9997 14.166 39.9997 16.041V16.0605C39.9997 17.9746 41.5133 19.1855 43.5153 19.1855ZM41.7379 16.0215V16.002C41.7379 14.957 42.4411 14.3906 44.0426 14.293L46.8551 14.1172V15.0742C46.8551 16.5781 45.5954 17.7109 43.8668 17.7109C42.6461 17.7109 41.7379 17.0859 41.7379 16.0215ZM59.7098 3.6875H57.913L56.3993 5.9043H56.243L54.7294 3.6875H52.9325L55.2958 7.00781H57.3465L59.7098 3.6875ZM56.3505 19.1855C58.8797 19.1855 60.2958 17.8281 60.7255 15.9238L60.745 15.8164L59.0653 15.8262L59.0458 15.8848C58.6551 17.0566 57.7567 17.6816 56.3407 17.6816C54.4657 17.6816 53.2547 16.1289 53.2547 13.707V13.6875C53.2547 11.3145 54.4462 9.79102 56.3407 9.79102C57.8544 9.79102 58.7919 10.6309 59.0555 11.666L59.0653 11.6953H60.7547L60.745 11.6367C60.4325 9.76172 58.8993 8.28711 56.3407 8.28711C53.3915 8.28711 51.5165 10.416 51.5165 13.6875V13.707C51.5165 17.0469 53.4012 19.1855 56.3505 19.1855ZM67.5548 19.0781C67.8868 19.0781 68.2091 19.0391 68.5411 18.9805V17.5352C68.2286 17.5645 68.0626 17.5742 67.7598 17.5742C66.6661 17.5742 66.2364 17.0762 66.2364 15.8359V9.87891H68.5411V8.47266H66.2364V5.74805H64.4786V8.47266H62.8184V9.87891H64.4786V16.2656C64.4786 18.2773 65.3868 19.0781 67.5548 19.0781ZM75.6048 19.1855C78.0853 19.1855 79.5892 17.7793 79.9505 16.3535L79.97 16.2754H78.2708L78.2317 16.3633C77.9485 16.998 77.0696 17.6719 75.6438 17.6719C73.7688 17.6719 72.5677 16.4023 72.5188 14.2246H80.097V13.5605C80.097 10.416 78.3587 8.28711 75.4974 8.28711C72.636 8.28711 70.7806 10.5137 70.7806 13.7656V13.7754C70.7806 17.0762 72.597 19.1855 75.6048 19.1855ZM75.4876 9.80078C77.0403 9.80078 78.1927 10.7871 78.3685 12.8672H72.5481C72.7337 10.8652 73.9251 9.80078 75.4876 9.80078ZM89.1267 19H90.8259V12.4766C90.8259 10.9922 91.8708 9.79102 93.2478 9.79102C94.5759 9.79102 95.4353 10.6016 95.4353 11.8516V19H97.1345V12.2324C97.1345 10.8945 98.1013 9.79102 99.5661 9.79102C101.051 9.79102 101.763 10.5625 101.763 12.1152V19H103.463V11.7246C103.463 9.51758 102.261 8.28711 100.113 8.28711C98.6579 8.28711 97.4568 9.01953 96.8904 10.1328H96.7341C96.2458 9.03906 95.2497 8.28711 93.824 8.28711C92.447 8.28711 91.4509 8.94141 90.9822 10.0742H90.8259V8.47266H89.1267V19ZM108.456 7.00781L110.712 3.6875H108.7L106.972 7.00781H108.456ZM106.952 19H108.651V8.47266H106.952V19ZM115.852 19.1855C118.244 19.1855 120.07 17.8867 120.07 16.0117V15.9922C120.07 14.4883 119.113 13.6289 117.131 13.1504L115.51 12.7598C114.27 12.457 113.742 12.0078 113.742 11.2949V11.2754C113.742 10.3477 114.66 9.70312 115.91 9.70312C117.18 9.70312 118 10.2793 118.225 11.1094H119.895C119.66 9.39062 118.127 8.28711 115.92 8.28711C113.684 8.28711 112.004 9.60547 112.004 11.3535V11.3633C112.004 12.877 112.893 13.7363 114.865 14.2051L116.496 14.5957C117.795 14.9082 118.332 15.4062 118.332 16.1191V16.1387C118.332 17.0957 117.326 17.7695 115.91 17.7695C114.563 17.7695 113.723 17.1934 113.44 16.3145H111.701C111.897 18.0527 113.508 19.1855 115.852 19.1855ZM126.734 19.0781C127.066 19.0781 127.388 19.0391 127.72 18.9805V17.5352C127.408 17.5645 127.242 17.5742 126.939 17.5742C125.845 17.5742 125.415 17.0762 125.415 15.8359V9.87891H127.72V8.47266H125.415V5.74805H123.658V8.47266H121.997V9.87891H123.658V16.2656C123.658 18.2773 124.566 19.0781 126.734 19.0781ZM134.813 19.1855C137.811 19.1855 139.667 17.1152 139.667 13.7461V13.7266C139.667 10.3477 137.811 8.28711 134.813 8.28711C131.815 8.28711 129.96 10.3477 129.96 13.7266V13.7461C129.96 17.1152 131.815 19.1855 134.813 19.1855ZM134.813 17.6816C132.821 17.6816 131.698 16.2266 131.698 13.7461V13.7266C131.698 11.2363 132.821 9.79102 134.813 9.79102C136.805 9.79102 137.928 11.2363 137.928 13.7266V13.7461C137.928 16.2266 136.805 17.6816 134.813 17.6816Z" fill="#919192"/>
<path fill-rule="evenodd" clip-rule="evenodd" d="M95.3709 38.3896C95.7691 38.716 96 39.2038 96 39.7188V87.8438C96 88.6631 95.4217 89.3685 94.6183 89.5291L77.4308 92.9666C77.2083 93.0111 76.9792 93.0111 76.7567 92.9666L59.9062 89.5966L43.0558 92.9666C42.5509 93.0676 42.0273 92.9369 41.6291 92.6104C41.2309 92.284 41 91.7962 41 91.2813V43.1563C41 42.337 41.5783 41.6316 42.3817 41.4709L59.5692 38.0334C59.7917 37.9889 60.0208 37.9889 60.2433 38.0334L77.0938 41.4035L93.9442 38.0334C94.4491 37.9324 94.9727 38.0631 95.3709 38.3896ZM75.375 44.5653L61.625 41.8153V86.4347L75.375 89.1847V44.5653ZM78.8125 89.1847L92.5625 86.4347V41.8153L78.8125 44.5653V89.1847ZM58.1875 86.4347V41.8153L44.4375 44.5653V89.1847L58.1875 86.4347Z" fill="#919192"/>
</svg>
