<svg width="36" height="36" viewBox="0 0 36 36" fill="none" xmlns="http://www.w3.org/2000/svg">
<path d="M24.75 13.5C24.75 17.2279 21.7279 20.25 18 20.25C14.2721 20.25 11.25 17.2279 11.25 13.5C11.25 9.77208 14.2721 6.75 18 6.75C21.7279 6.75 24.75 9.77208 24.75 13.5Z" fill="#212529"/>
<path fill-rule="evenodd" clip-rule="evenodd" d="M0 18C0 8.05888 8.05888 0 18 0C27.9411 0 36 8.05888 36 18C36 27.9411 27.9411 36 18 36C8.05888 36 0 27.9411 0 18ZM18 2.25C9.30151 2.25 2.25 9.30151 2.25 18C2.25 21.7202 3.53983 25.1392 5.69669 27.8341C7.29659 25.2568 10.8104 22.5 18 22.5C25.1896 22.5 28.7034 25.2568 30.3033 27.8341C32.4602 25.1392 33.75 21.7202 33.75 18C33.75 9.30151 26.6985 2.25 18 2.25Z" fill="#212529"/>
</svg>
