<svg width="36" height="36" viewBox="0 0 36 36" fill="none" xmlns="http://www.w3.org/2000/svg">
<path d="M31.5 2.25C32.7426 2.25 33.75 3.25736 33.75 4.5V31.5C33.75 32.7426 32.7426 33.75 31.5 33.75H4.5C3.25736 33.75 2.25 32.7426 2.25 31.5V4.5C2.25 3.25736 3.25736 2.25 4.5 2.25H31.5ZM4.5 0C2.01472 0 0 2.01472 0 4.5V31.5C0 33.9853 2.01472 36 4.5 36H31.5C33.9853 36 36 33.9853 36 31.5V4.5C36 2.01472 33.9853 0 31.5 0H4.5Z" fill="#212529"/>
<path d="M18 9C18.6213 9 19.125 9.50368 19.125 10.125V16.875H25.875C26.4963 16.875 27 17.3787 27 18C27 18.6213 26.4963 19.125 25.875 19.125H19.125V25.875C19.125 26.4963 18.6213 27 18 27C17.3787 27 16.875 26.4963 16.875 25.875V19.125H10.125C9.50368 19.125 9 18.6213 9 18C9 17.3787 9.50368 16.875 10.125 16.875H16.875V10.125C16.875 9.50368 17.3787 9 18 9Z" fill="#212529"/>
</svg>
